# xmcd
#
# Track frame offsets: 
#        150
#        20322
#        34080
#        47684
#        67836
#        82143
#        110739
#
# Disc length: 2329 seconds
#
# Revision: 0
# Processed by: cddbd v1.5.2PL0 Copyright (c) Steve Scherf et al.
# Submitted via: ExactAudioCopyFreeDBPlugin 1.0
#
DISCID=54091707
DTITLE=Alicia Keys - Songs in A minor [Deluxe Edition] Disc 2
DYEAR=2001
DGENRE=Soul and R&B
TTITLE0=Alicia Keys - Nas - A Woman's Worth [Remix]
TTITLE1=Juiciest [Mixtape Version]
TTITLE2=If I Was Your Woman [#][Original Funky Demo]
TTITLE3=Fallin' [The Ali Soundtrack Version]
TTITLE4=Typewriter [#]
TTITLE5=Butterflyz [The Drumline Mix]
TTITLE6=A Harlem Love Story ("Fallin'" - "A Woman's Worth")
EXTD=
EXTT0=
EXTT1=
EXTT2=
EXTT3=
EXTT4=
EXTT5=
EXTT6=
PLAYORDER=
